<?xml version="1.0" encoding="utf-8"?>
<!-- Generator: Adobe Illustrator 25.4.1, SVG Export Plug-In . SVG Version: 6.00 Build 0)  -->
<svg version="1.1" id="Layer_1" xmlns="http://www.w3.org/2000/svg" xmlns:xlink="http://www.w3.org/1999/xlink" x="0px" y="0px"
	 viewBox="0 0 300 150" style="enable-background:new 0 0 300 150;" xml:space="preserve">
<style type="text/css">
	.st0{fill:url(#SVGID_1_);}
	.st1{fill:url(#SVGID_00000056414397368097284080000012694247205240654991_);}
	.st2{stroke:#FFFFFF;stroke-width:0.25;stroke-miterlimit:10;}
	.st3{font-family:'GoogleSans-Bold';}
	.st4{font-size:24px;}
	.st5{fill:url(#SVGID_00000063622255986099849110000009827793551747682725_);}
	.st6{fill:url(#SVGID_00000117657402178445593420000009497383878497943205_);}
</style>
<linearGradient id="SVGID_1_" gradientUnits="userSpaceOnUse" x1="424.6478" y1="-345.4474" x2="649.6478" y2="-120.4473">
	<stop  offset="0.3518" style="stop-color:#33625D"/>
	<stop  offset="0.7203" style="stop-color:#3A9745"/>
</linearGradient>
<rect x="387.1" y="-307.9" class="st0" width="300" height="150"/>
<image style="overflow:visible;" width="644" height="643" xlink:href="3325B7237B3AB0C0.png"  transform="matrix(0.24 0 0 0.24 356.0224 -401.8999)">
</image>
<image style="overflow:visible;" width="644" height="644" xlink:href="3325B7237B3AB0C1.png"  transform="matrix(0.24 0 0 0.24 597.9424 -288.8599)">
</image>
<g>
	
		<image style="overflow:visible;opacity:0.38;" width="690" height="688" xlink:href="3325B7237B3AB0C7.png"  transform="matrix(0.24 0 0 0.24 531.3423 -221.0599)">
	</image>
	<g>
		
			<image style="overflow:visible;" width="590" height="589" xlink:href="3325B7237B3AB0C2.png"  transform="matrix(0.24 0 0 0.24 535.3024 -212.2999)">
		</image>
	</g>
</g>
<text transform="matrix(1 0 0 1 435.9766 -240.4711)"><tspan x="0" y="0" class="st2 st3 st4">- Download Stock</tspan><tspan x="0" y="28.8" class="st2 st3 st4">- Flash Stock</tspan></text>
<linearGradient id="SVGID_00000143575531108964486760000004481942158766336664_" gradientUnits="userSpaceOnUse" x1="37.5" y1="-37.5" x2="262.5" y2="187.5">
	<stop  offset="0.3518" style="stop-color:#663434"/>
	<stop  offset="0.7203" style="stop-color:#92278F"/>
</linearGradient>
<rect style="fill:url(#SVGID_00000143575531108964486760000004481942158766336664_);" width="300" height="150"/>
<image style="overflow:visible;" width="644" height="643" xlink:href="3325B7237B3AB0C3.png"  transform="matrix(0.24 0 0 0.24 50.7424 -86.7799)">
</image>
<image style="overflow:visible;" width="644" height="643" xlink:href="3325B7237B3AB0CE.png"  transform="matrix(0.24 0 0 0.24 227.6224 15.9401)">
</image>
<image style="overflow:visible;" width="464" height="464" xlink:href="3325B7237B3AB0CF.png"  transform="matrix(0.24 0 0 0.24 -71.8976 15.4601)">
</image>
<text transform="matrix(1 0 0 1 78.6248 56.8755)"><tspan x="0" y="0" class="st2 st3 st4">- Debloat</tspan><tspan x="0" y="25" class="st2 st3 st4">- Settings</tspan><tspan x="0" y="50" class="st2 st3 st4">- Undervolt*</tspan></text>
<linearGradient id="SVGID_00000055668558716854900460000000261700571395742653_" gradientUnits="userSpaceOnUse" x1="461.0272" y1="-48.1951" x2="686.0272" y2="176.8049">
	<stop  offset="0.3518" style="stop-color:#4D4D4F"/>
	<stop  offset="0.7203" style="stop-color:#809EAD"/>
</linearGradient>
<rect x="423.5" y="-10.7" style="fill:url(#SVGID_00000055668558716854900460000000261700571395742653_);" width="300" height="150"/>
<image style="overflow:visible;" width="643" height="644" xlink:href="3325B7237B3AB0C4.png"  transform="matrix(0.24 0 0 0.24 426.5824 -97.5799)">
</image>
<image style="overflow:visible;" width="644" height="644" xlink:href="3325B7237B3AB0C5.png"  transform="matrix(0.24 0 0 0.24 646.1824 47.3801)">
</image>
<image style="overflow:visible;" width="463" height="463" xlink:href="64737820CF7B8C1F.png"  transform="matrix(0.24 0 0 0.24 381.9424 73.5401)">
</image>
<text transform="matrix(1 0 0 1 476.0397 42.3803)"><tspan x="0" y="0" class="st2 st3 st4">- Backup</tspan><tspan x="0" y="28.8" class="st2 st3 st4">- Download ROM</tspan><tspan x="0" y="57.6" class="st2 st3 st4">- Flash ROM</tspan></text>
<linearGradient id="SVGID_00000023982929067707027370000002786447222274964411_" gradientUnits="userSpaceOnUse" x1="82.0024" y1="-350.5999" x2="307.0024" y2="-125.5999">
	<stop  offset="0.3518" style="stop-color:#622C4E"/>
	<stop  offset="0.7203" style="stop-color:#763A96"/>
</linearGradient>
<rect x="44.5" y="-313.1" style="fill:url(#SVGID_00000023982929067707027370000002786447222274964411_);" width="300" height="150"/>
<image style="overflow:visible;" width="643" height="644" xlink:href="64737820CF7B8C1D.png"  transform="matrix(0.24 0 0 0.24 18.1024 -282.6199)">
</image>
<image style="overflow:visible;" width="644" height="644" xlink:href="64737820CF7B8C1B.png"  transform="matrix(0.24 0 0 0.24 201.7024 -375.4999)">
</image>
<image style="overflow:visible;" width="464" height="463" xlink:href="64737820CF7B8C15.png"  transform="matrix(0.24 0 0 0.24 199.7824 -205.3399)">
</image>
<text transform="matrix(1 0 0 1 79.7957 -274.4239)"><tspan x="0" y="0" class="st2 st3 st4">- Unlock Bootloader</tspan><tspan x="0" y="28.8" class="st2 st3 st4">- Flash Recovery</tspan><tspan x="0" y="57.6" class="st2 st3 st4">- Repartition*</tspan><tspan x="0" y="86.4" class="st2 st3 st4">- Flash ROM</tspan></text>
</svg>
